<?xml version="1.0" encoding="utf-8"?>
<!-- Generator: Adobe Illustrator 16.0.0, SVG Export Plug-In . SVG Version: 6.00 Build 0)  -->
<!DOCTYPE svg PUBLIC "-//W3C//DTD SVG 1.1//EN" "http://www.w3.org/Graphics/SVG/1.1/DTD/svg11.dtd">
<svg version="1.1" id="Layer_1" xmlns="http://www.w3.org/2000/svg" xmlns:xlink="http://www.w3.org/1999/xlink" x="0px" y="0px"
	 width="150.573px" height="80.335px" viewBox="0 0 150.573 80.335" enable-background="new 0 0 150.573 80.335"
	 xml:space="preserve">
<g>
	<g>
		<g enable-background="new    ">
			<g enable-background="new    ">
				<defs>
					<path id="SVGID_1_" enable-background="new    " d="M133.615,66.039c-1.313,0.684-2.552,1.368-3.866,2.051
						c-12.625,6.572-32.305,10.796-54.305,10.795v-1.27C98.444,77.615,120.077,73.085,133.615,66.039z"/>
				</defs>
				<clipPath id="SVGID_2_">
					<use xlink:href="#SVGID_1_"  overflow="visible"/>
				</clipPath>
				<g clip-path="url(#SVGID_2_)" enable-background="new    ">
					<path fill="#850000" d="M75.444,78.769v-1.153c23,0,44.634-4.53,58.173-11.578l-3.868,2.052
						c-12.625,6.572-32.305,10.796-54.305,10.795"/>
				</g>
			</g>
			<g enable-background="new    ">
				<defs>
					<path id="SVGID_3_" enable-background="new    " d="M20.905,68.089c-1.313-0.684-2.553-1.368-3.867-2.052
						c13.539,7.047,34.406,11.578,58.406,11.578v1.27C53.444,78.886,33.531,74.661,20.905,68.089z"/>
				</defs>
				<clipPath id="SVGID_4_">
					<use xlink:href="#SVGID_3_"  overflow="visible"/>
				</clipPath>
				<g clip-path="url(#SVGID_4_)" enable-background="new    ">
					<path fill="#850000" d="M20.905,68.089l-3.867-2.052c13.539,7.048,34.406,11.578,58.406,11.578v1.27
						C53.444,78.886,33.531,74.661,20.905,68.089"/>
				</g>
			</g>
			<g enable-background="new    ">
				<defs>
					<path id="SVGID_5_" enable-background="new    " d="M16.817,14.615c0.656-0.342,1.313-0.684,1.971-1.026
						c0.657-0.342,1.314-0.684,1.971-1.025c-9.146,4.76-14.445,10.75-14.444,17.257c-0.003,15.494,31.13,28.055,69.13,28.053v5.337
						c-41,0-74.13-13.468-74.13-30.087C1.314,26.145,7.01,19.72,16.817,14.615z"/>
				</defs>
				<clipPath id="SVGID_6_">
					<use xlink:href="#SVGID_5_"  overflow="visible"/>
				</clipPath>
				<g clip-path="url(#SVGID_6_)" enable-background="new    ">
					<path fill="#850000" d="M16.817,14.615l3.941-2.052c-5.216,2.715-9.23,5.831-11.717,9.214l-4.79,2.72
						C6.918,20.868,11.223,17.527,16.817,14.615"/>
					<path fill="#8A0000" d="M4.252,24.497l4.79-2.72c-1.597,2.174-2.563,4.458-2.812,6.817l-4.995,3.215
						C1.502,29.277,2.539,26.828,4.252,24.497"/>
					<path fill="#8F0000" d="M1.234,31.809l4.995-3.215C6.187,29,6.165,29.41,6.165,29.82c0,1.16,0.173,2.304,0.509,3.427
						l-4.963,3.552c-0.36-1.205-0.546-2.431-0.546-3.675C1.165,32.683,1.188,32.245,1.234,31.809"/>
					<path fill="#940000" d="M1.711,36.799l4.963-3.552c0.362,1.212,0.916,2.4,1.646,3.56l-4.843,3.811
						C2.693,39.374,2.101,38.1,1.711,36.799"/>
					<path fill="#990000" d="M3.478,40.618l4.843-3.811c0.621,0.987,1.372,1.952,2.243,2.894l-4.681,4.021
						C4.948,42.711,4.144,41.676,3.478,40.618"/>
					<path fill="#9E0000" d="M5.883,43.721l4.681-4.021c0.787,0.851,1.672,1.681,2.651,2.49l-4.489,4.201
						C7.677,45.524,6.727,44.633,5.883,43.721"/>
					<path fill="#A30000" d="M8.726,46.392l4.489-4.201c0.901,0.746,1.883,1.473,2.938,2.179l-4.275,4.359
						C10.746,47.971,9.693,47.191,8.726,46.392"/>
					<path fill="#A80000" d="M11.878,48.729l4.275-4.359c0.989,0.662,2.044,1.306,3.16,1.931l-4.047,4.499
						C14.069,50.129,12.938,49.438,11.878,48.729"/>
					<path fill="#AD0000" d="M15.267,50.798l4.047-4.499c1.06,0.592,2.175,1.167,3.343,1.724l-3.806,4.624
						C17.599,52.051,16.402,51.434,15.267,50.798"/>
					<path fill="#B30000" d="M18.851,52.647l3.806-4.624c1.12,0.534,2.288,1.05,3.502,1.548l-3.551,4.736
						C21.305,53.773,20.052,53.22,18.851,52.647"/>
					<path fill="#B80000" d="M22.607,54.308l3.551-4.736c1.172,0.48,2.386,0.944,3.641,1.389l-3.288,4.837
						C25.166,55.32,23.863,54.823,22.607,54.308"/>
					<path fill="#BD0000" d="M26.511,55.798l3.288-4.837c1.22,0.434,2.478,0.849,3.771,1.247l-3.015,4.927
						C29.168,56.708,27.819,56.262,26.511,55.798"/>
					<path fill="#C20000" d="M30.555,57.135l3.015-4.927c1.261,0.388,2.555,0.758,3.881,1.111l-2.733,5.007
						C33.294,57.948,31.906,57.551,30.555,57.135"/>
					<path fill="#C70000" d="M34.717,58.326l2.733-5.007c1.291,0.343,2.612,0.669,3.961,0.978l-2.447,5.078
						C37.518,59.044,36.101,58.694,34.717,58.326"/>
					<path fill="#CC0000" d="M38.964,59.374l2.447-5.078c1.307,0.298,2.64,0.58,3.998,0.844l-2.157,5.139
						C41.796,59.997,40.366,59.694,38.964,59.374"/>
					<path fill="#D10000" d="M43.252,60.28l2.157-5.139c1.307,0.254,2.637,0.493,3.987,0.714l-1.868,5.19
						C46.08,60.808,44.653,60.553,43.252,60.28"/>
					<path fill="#D60000" d="M47.528,61.045l1.868-5.19c1.295,0.212,2.609,0.408,3.941,0.589l-1.582,5.233
						C50.327,61.483,48.917,61.272,47.528,61.045"/>
					<path fill="#DB0000" d="M51.756,61.677l1.582-5.233c1.234,0.167,2.483,0.32,3.747,0.459l-1.311,5.267
						C54.419,62.02,53.079,61.856,51.756,61.677"/>
					<path fill="#E00000" d="M55.774,62.169l1.311-5.267c1.201,0.132,2.415,0.251,3.642,0.357l-1.046,5.292
						C58.365,62.439,57.062,62.311,55.774,62.169"/>
					<path fill="#E60000" d="M59.681,62.553l1.046-5.292c1.179,0.102,2.368,0.191,3.567,0.269l-0.788,5.312
						C62.22,62.758,60.944,62.662,59.681,62.553"/>
					<path fill="#EB0000" d="M63.506,62.841l0.788-5.312c1.13,0.073,2.269,0.134,3.416,0.184l-0.54,5.325
						C65.939,62.984,64.718,62.918,63.506,62.841"/>
					<path fill="#F00000" d="M67.17,63.038l0.54-5.325c1.14,0.05,2.288,0.088,3.444,0.115l-0.289,5.334
						C69.625,63.133,68.393,63.091,67.17,63.038"/>
					<path fill="#F50000" d="M70.865,63.162l0.289-5.334c1.149,0.027,2.305,0.042,3.468,0.045l-0.038,5.337
						C73.337,63.206,72.097,63.19,70.865,63.162"/>
					<path fill="#FA0000" d="M74.584,62.769l0.038-5c0.175,0,0.822,0,0.822,0v5h-1"/>
				</g>
			</g>
			<g>
				<path fill="#C70000" d="M75.146,57.874C37.052,57.875,6.162,45.314,6.165,29.82C6.162,14.331,37.052,1.767,75.146,1.768
					c38.084-0.001,68.974,12.563,68.971,28.053C144.119,45.314,113.229,57.875,75.146,57.874z"/>
			</g>
			<g enable-background="new    ">
				<defs>
					<path id="SVGID_7_" enable-background="new    " d="M75.444,77.615V63.211c41,0,74-13.468,74-30.087v14.404
						C149.444,64.147,116.444,77.615,75.444,77.615z"/>
				</defs>
				<clipPath id="SVGID_8_">
					<use xlink:href="#SVGID_7_"  overflow="visible"/>
				</clipPath>
				<g clip-path="url(#SVGID_8_)" enable-background="new    ">
					<path fill="#B80000" d="M75.444,77.769V63.211c1,0,2-0.007,3-0.022v14.404c-1,0.015-2,0.022-3,0.022"/>
					<path fill="#BD0000" d="M78.444,77.769v-14.58c2-0.033,4-0.102,6-0.206v14.404c-2,0.104-4,0.172-6,0.206"/>
					<path fill="#C20000" d="M84.444,77.769V62.983c2-0.122,5-0.292,7-0.509v14.404c-2,0.216-5,0.387-7,0.509"/>
					<path fill="#C70000" d="M91.444,76.769V62.474c4-0.324,7-0.752,10-1.274v14.404c-3,0.522-6,0.95-10,1.274"/>
					<path fill="#CC0000" d="M101.444,75.769V61.2c8-1.225,15-2.971,22-5.133v14.404c-7,2.163-14,3.909-22,5.133"/>
					<path fill="#C70000" d="M123.444,70.769V56.066c2-1.001,5-2.091,8-3.26v14.404c-3,1.169-6,2.259-8,3.26"/>
					<path fill="#C20000" d="M131.444,66.769V52.807c1-0.792,3-1.62,4-2.48V64.73c-1,0.861-3,1.689-4,2.481"/>
					<path fill="#BD0000" d="M135.444,64.769V50.326c2-0.721,3-1.465,4-2.23V62.5c-1,0.765-2,1.509-4,2.23"/>
					<path fill="#B80000" d="M139.444,62.769V48.096c1-0.683,2-1.384,3-2.1V60.4c-1,0.716-2,1.416-3,2.1"/>
					<path fill="#B30000" d="M142.444,60.769V45.996c0-0.665,1-1.343,2-2.033v14.404c-1,0.69-2,1.368-2,2.033"/>
					<path fill="#AD0000" d="M144.444,58.769V43.963c0-0.659,1-1.329,1-2.009v14.404c0,0.68-1,1.35-1,2.009"/>
					<path fill="#A80000" d="M145.444,56.769V41.954c1-0.663,1-1.336,2-2.019V54.34c-1,0.682-1,1.355-2,2.019"/>
					<path fill="#A30000" d="M147.444,54.769V39.936c0-0.678,0-1.365,1-2.06V52.28c-1,0.695-1,1.382-1,2.06"/>
					<path fill="#9E0000" d="M148.444,52.769V37.875c0-0.708,0-1.423,0-2.146v14.404C148.444,50.857,148.444,52.769,148.444,52.769"
						/>
					<path fill="#990000" d="M148.444,49.769V35.73c1-0.757,1-1.522,1-2.295v14.404c0,0.772,0,1.538-1,2.294"/>
					<path fill="#940000" d="M149.444,47.769V33.435c0-0.104,0-0.207,0-0.311v14.404C149.444,47.632,149.444,47.769,149.444,47.769"
						/>
				</g>
			</g>
			<g enable-background="new    ">
				<defs>
					<path id="SVGID_9_" enable-background="new    " d="M1.444,47.528V33.124c0,16.619,33,30.087,74,30.087v14.404
						C34.444,77.615,1.444,64.147,1.444,47.528z"/>
				</defs>
				<clipPath id="SVGID_10_">
					<use xlink:href="#SVGID_9_"  overflow="visible"/>
				</clipPath>
				<g clip-path="url(#SVGID_10_)" enable-background="new    ">
					<path fill="#850000" d="M1.444,47.769V33.124c0,8.584,9,16.327,23,21.808v14.404c-14-5.481-23-13.224-23-21.808"/>
					<path fill="#8A0000" d="M24.444,69.769V54.932c2,0.811,4,1.572,6,2.279v14.404c-2-0.708-4-1.469-6-2.279"/>
					<path fill="#8F0000" d="M30.444,71.769V57.211c2,0.559,4,1.083,6,1.572v14.404c-2-0.489-4-1.014-6-1.572"/>
					<path fill="#940000" d="M36.444,72.769V58.783c2,0.425,3,0.822,5,1.191v14.404c-2-0.369-3-0.766-5-1.191"/>
					<path fill="#990000" d="M41.444,74.769V59.974c2,0.339,4,0.654,5,0.944v14.404c-1-0.29-3-0.604-5-0.944"/>
					<path fill="#9E0000" d="M46.444,75.769V60.918c2,0.273,4,0.525,5,0.752v14.404c-1-0.228-3-0.479-5-0.752"/>
					<path fill="#A30000" d="M51.444,75.769V61.67c2,0.22,4,0.417,5,0.592v14.404c-1-0.174-3-0.372-5-0.591"/>
					<path fill="#A80000" d="M56.444,76.769V62.262c2,0.172,4,0.322,5,0.449v14.404c-1-0.126-3-0.277-5-0.449"/>
					<path fill="#AD0000" d="M61.444,76.769V62.71c2,0.128,4,0.232,5,0.312v14.404c-1-0.079-3-0.183-5-0.311"/>
					<path fill="#B30000" d="M66.444,77.769V63.022c2,0.082,4,0.137,6,0.166v14.404c-2-0.029-4-0.084-6-0.167"/>
					<path fill="#B80000" d="M72.444,77.769V63.188c1,0.015,2,0.023,3,0.023v14.404c-1,0-2-0.008-3-0.023"/>
				</g>
			</g>
			<g enable-background="new    ">
				<defs>
					<path id="SVGID_11_" enable-background="new    " d="M129.521,12.562c1.313,0.684,2.628,1.368,3.941,2.052
						c9.809,5.104,15.803,11.53,15.803,18.51c0,16.619-32.821,30.087-73.821,30.087v-5.337c38,0.001,68.824-12.559,68.821-28.053
						C144.267,23.313,138.667,17.322,129.521,12.562z"/>
				</defs>
				<clipPath id="SVGID_12_">
					<use xlink:href="#SVGID_11_"  overflow="visible"/>
				</clipPath>
				<g clip-path="url(#SVGID_12_)" enable-background="new    ">
					<path fill="#FA0000" d="M75.444,62.769v-4.895c1,0,1.975-0.01,3.027-0.029l0.305,5.335c-1.129,0.021-2.332,0.031-3.332,0.031"
						/>
					<path fill="#FF0000" d="M78.553,63.18l-0.23-5.335c1.334-0.025,2.657-0.064,3.971-0.12l0.519,5.326
						C81.403,63.11,79.983,63.153,78.553,63.18"/>
					<path fill="#FF1F1F" d="M82.812,63.051l-0.519-5.326c1.587-0.066,3.159-0.155,4.713-0.264l0.861,5.307
						C86.2,62.885,84.515,62.98,82.812,63.051"/>
					<path fill="#FF2B2B" d="M87.867,62.768l-0.861-5.307c7.937-0.56,15.409-1.671,22.169-3.234l2.469,5.073
						C104.394,60.976,96.38,62.167,87.867,62.768"/>
					<path fill="#FF1F1F" d="M111.644,59.3l-2.469-5.073c2.145-0.496,4.219-1.037,6.212-1.621l2.919,4.955
						C116.168,58.188,113.944,58.768,111.644,59.3"/>
					<path fill="#FF0000" d="M118.306,57.562l-2.919-4.955c1.99-0.583,3.9-1.207,5.724-1.871l3.334,4.82
						C122.488,56.268,120.439,56.937,118.306,57.562"/>
					<path fill="#FA0000" d="M124.444,55.556l-3.334-4.82c1.935-0.704,3.771-1.451,5.499-2.238l3.731,4.658
						C128.487,54,126.519,54.801,124.444,55.556"/>
					<path fill="#F50000" d="M130.341,53.155l-3.731-4.658c1.716-0.782,3.326-1.603,4.821-2.459l4.08,4.479
						C133.908,51.437,132.182,52.317,130.341,53.155"/>
					<path fill="#F00000" d="M135.511,50.518l-4.08-4.479c1.362-0.781,2.629-1.591,3.793-2.428l4.354,4.304
						C138.33,48.812,136.972,49.68,135.511,50.518"/>
					<path fill="#EB0000" d="M139.578,47.914l-4.354-4.304c1.039-0.748,1.996-1.517,2.867-2.305l4.562,4.137
						C141.72,46.288,140.693,47.112,139.578,47.914"/>
					<path fill="#E60000" d="M142.653,45.442l-4.562-4.137c0.79-0.715,1.509-1.446,2.152-2.192l4.719,3.978
						C144.271,43.891,143.501,44.675,142.653,45.442"/>
					<path fill="#E00000" d="M144.962,43.091l-4.719-3.978c0.593-0.688,1.122-1.387,1.585-2.098l4.833,3.826
						C146.165,41.604,145.598,42.354,144.962,43.091"/>
					<path fill="#DB0000" d="M146.661,40.841l-4.833-3.826c0.435-0.668,0.811-1.347,1.124-2.034l4.915,3.678
						C147.53,39.396,147.128,40.124,146.661,40.841"/>
					<path fill="#D60000" d="M147.867,38.659l-4.915-3.678c0.302-0.659,0.546-1.325,0.731-2l4.968,3.533
						C148.452,37.238,148.19,37.953,147.867,38.659"/>
					<path fill="#D10000" d="M148.651,36.515l-4.968-3.533c0.181-0.656,0.306-1.319,0.374-1.988l4.995,3.389
						C148.98,35.1,148.846,35.811,148.651,36.515"/>
					<path fill="#CC0000" d="M149.053,34.382l-4.995-3.389c0.039-0.389,0.059-0.78,0.059-1.173c0-0.272-0.01-0.545-0.028-0.816
						l4.998,3.245c0.021,0.291,0.03,0.583,0.03,0.875C149.116,33.545,149.095,33.965,149.053,34.382"/>
					<path fill="#C70000" d="M149.086,32.249l-4.998-3.245c-0.046-0.659-0.148-1.312-0.305-1.958l4.976,3.102
						C148.927,30.842,149.036,31.542,149.086,32.249"/>
					<path fill="#C20000" d="M148.759,30.148l-4.976-3.102c-0.157-0.651-0.369-1.296-0.634-1.934l4.93,2.962
						C148.363,28.758,148.591,29.45,148.759,30.148"/>
					<path fill="#BD0000" d="M148.079,28.075l-4.93-2.962c-0.271-0.65-0.596-1.293-0.974-1.928l4.858,2.822
						C147.44,26.688,147.789,27.377,148.079,28.075"/>
					<path fill="#B80000" d="M147.034,26.007l-4.858-2.822c-0.391-0.655-0.839-1.301-1.341-1.938l4.762,2.681
						C146.135,24.611,146.615,25.304,147.034,26.007"/>
					<path fill="#B30000" d="M145.597,23.928l-4.762-2.681c-0.522-0.663-1.104-1.315-1.742-1.955l4.636,2.539
						C144.413,22.518,145.036,23.217,145.597,23.928"/>
					<path fill="#AD0000" d="M143.729,21.831l-4.636-2.539c-0.672-0.674-1.406-1.335-2.2-1.982l4.477,2.396
						C142.221,20.399,143.008,21.108,143.729,21.831"/>
					<path fill="#A80000" d="M141.369,19.705l-4.477-2.396c-0.846-0.689-1.759-1.362-2.737-2.018l4.278,2.25
						C139.481,18.244,140.462,18.966,141.369,19.705"/>
					<path fill="#A30000" d="M138.434,17.542l-4.278-2.25c-1.056-0.708-2.188-1.396-3.389-2.061l4.032,2.1
						C136.088,16.044,137.301,16.782,138.434,17.542"/>
					<path fill="#9E0000" d="M134.799,15.331l-4.032-2.1c-0.407-0.226-0.822-0.449-1.246-0.669l3.942,2.052
						C133.917,14.85,134.362,15.089,134.799,15.331"/>
				</g>
			</g>
		</g>
	</g>
</g>
</svg>
