<?xml version="1.0" encoding="utf-8"?>
<!-- Generator: Adobe Illustrator 16.0.0, SVG Export Plug-In . SVG Version: 6.00 Build 0)  -->
<!DOCTYPE svg PUBLIC "-//W3C//DTD SVG 1.1//EN" "http://www.w3.org/Graphics/SVG/1.1/DTD/svg11.dtd">
<svg version="1.1" id="Layer_1" xmlns="http://www.w3.org/2000/svg" xmlns:xlink="http://www.w3.org/1999/xlink" x="0px" y="0px"
	 width="151.246px" height="108.61px" viewBox="0 0 151.246 108.61" enable-background="new 0 0 151.246 108.61"
	 xml:space="preserve">
<g>
	<g>
		<g enable-background="new    ">
			<g>
				<path fill="#C70000" d="M75.348,61.937c-40.852,0-73.972-13.468-73.972-30.087c0-16.616,33.12-30.087,73.972-30.087
					c40.851,0,73.971,13.471,73.971,30.087C149.318,48.469,116.198,61.937,75.348,61.937z"/>
			</g>
			<g enable-background="new    ">
				<defs>
					<path id="SVGID_13_" enable-background="new    " d="M75.65,107.614V61.937c41,0,74-13.468,74-30.087v45.677
						C149.65,94.146,116.65,107.614,75.65,107.614z"/>
				</defs>
				<clipPath id="SVGID_2_">
					<use xlink:href="#SVGID_13_"  overflow="visible"/>
				</clipPath>
				<g clip-path="url(#SVGID_2_)" enable-background="new    ">
					<path fill="#B80000" d="M75.65,107.13V61.937c1,0,2-0.009,3-0.028v45.678c-1,0.018-2,0.027-3,0.027"/>
					<path fill="#BD0000" d="M78.65,107.13V61.909c2-0.038,4-0.115,6-0.229v45.677c-2,0.114-4,0.191-6,0.229"/>
					<path fill="#C20000" d="M84.65,107.13V61.68c3-0.136,5-0.326,8-0.565v45.677c-3,0.24-5,0.429-8,0.565"/>
					<path fill="#C70000" d="M92.65,107.13V61.114c4-0.364,7-0.844,11-1.43v45.677c-4,0.586-7,1.066-11,1.43"/>
					<path fill="#CC0000" d="M103.65,105.13V59.684c7-1.198,14-2.84,19-4.842v45.677c-5,2.001-12.131,3.528-19.291,4.726"/>
					<path fill="#C70000" d="M122.65,100.13V54.842c3-1.015,6-2.122,9-3.311v45.678c-3,1.188-6,2.295-9,3.31"/>
					<path fill="#C20000" d="M131.65,97.13V51.532c1-0.792,3-1.62,4-2.48v45.677c-1,0.861-3,1.689-4,2.481"/>
					<path fill="#BD0000" d="M135.65,95.13V49.051c2-0.721,3-1.465,4-2.23v45.677c-1,0.765-2,1.509-4,2.23"/>
					<path fill="#B80000" d="M139.65,92.13V46.821c1-0.684,2-1.384,3-2.1v45.677c-1,0.716-2,1.416-3,2.1"/>
					<path fill="#B30000" d="M142.65,90.13V44.722c0-0.665,1-1.343,2-2.033v45.677c-1,0.69-2,1.369-2,2.033"/>
					<path fill="#AD0000" d="M144.65,88.13V42.689c0-0.659,1-1.329,1-2.009v45.677c0,0.68-1,1.35-1,2.009"/>
					<path fill="#A80000" d="M145.65,86.13V40.68c1-0.664,1-1.337,2-2.019v45.678c-1,0.682-1,1.355-2,2.019"/>
					<path fill="#A30000" d="M147.65,84.13v-45.47c0-0.678,0-1.365,1-2.06v45.677c-1,0.695-1,1.382-1,2.06"/>
					<path fill="#9E0000" d="M148.65,82.13V36.601c0-0.708,0-1.423,0-2.146v45.677C148.65,80.855,148.65,82.13,148.65,82.13"/>
					<path fill="#990000" d="M148.65,80.13V34.455c1-0.757,1-1.522,1-2.294v45.677c0,0.772,0,1.538-1,2.294"/>
					<path fill="#940000" d="M149.65,78.13v-45.97c0-0.104,0-0.208,0-0.311v45.677C149.65,77.63,149.65,78.13,149.65,78.13"/>
				</g>
			</g>
			<g enable-background="new    ">
				<defs>
					<path id="SVGID_15_" enable-background="new    " d="M1.65,77.527V31.85c0,16.619,33,30.087,74,30.087v45.677
						C34.65,107.614,1.65,94.146,1.65,77.527z"/>
				</defs>
				<clipPath id="SVGID_4_">
					<use xlink:href="#SVGID_15_"  overflow="visible"/>
				</clipPath>
				<g clip-path="url(#SVGID_4_)" enable-background="new    ">
					<path fill="#850000" d="M1.65,77.13V31.85c0,8.584,9,16.327,23,21.808v45.677c-14-5.481-23-13.224-23-21.808"/>
					<path fill="#8A0000" d="M24.65,99.13V53.658c2,0.811,4,1.572,6,2.279v45.678c-2-0.708-4-1.469-6-2.28"/>
					<path fill="#8F0000" d="M30.65,101.13V55.937c2,0.559,4,1.083,6,1.572v45.677c-2-0.489-4-1.013-6-1.572"/>
					<path fill="#940000" d="M36.65,103.13V57.509c2,0.425,3,0.822,5,1.191v45.677c-2-0.369-3-0.766-5-1.191"/>
					<path fill="#990000" d="M41.65,104.13V58.7c2,0.339,4,0.654,5,0.944v45.677c-1-0.29-3-0.604-5-0.944"/>
					<path fill="#9E0000" d="M46.65,105.13V59.644c2,0.273,4,0.524,5,0.752v45.677c-1-0.228-3-0.479-5-0.752"/>
					<path fill="#A30000" d="M51.65,106.13V60.396c2,0.219,4,0.417,5,0.591v45.677c-1-0.174-3-0.372-5-0.591"/>
					<path fill="#A80000" d="M56.65,107.13V60.987c2,0.173,4,0.323,5,0.45v45.677c-1-0.127-3-0.277-5-0.45"/>
					<path fill="#AD0000" d="M61.65,107.13V61.438c2,0.128,4,0.233,5,0.312v45.677c-1-0.08-3-0.184-5-0.312"/>
					<path fill="#B30000" d="M66.65,107.13V61.75c2,0.083,4,0.138,6,0.166v45.677c-2-0.028-4-0.083-6-0.166"/>
					<path fill="#B80000" d="M72.65,107.13V61.916c1,0.014,2,0.021,3,0.021v45.677c-1,0-2-0.007-3-0.021"/>
				</g>
			</g>
		</g>
	</g>
</g>
</svg>
