<?xml version="1.0" encoding="utf-8"?>
<!-- Generator: Adobe Illustrator 16.0.0, SVG Export Plug-In . SVG Version: 6.00 Build 0)  -->
<!DOCTYPE svg PUBLIC "-//W3C//DTD SVG 1.1//EN" "http://www.w3.org/Graphics/SVG/1.1/DTD/svg11.dtd">
<svg version="1.1" id="Layer_1" xmlns="http://www.w3.org/2000/svg" xmlns:xlink="http://www.w3.org/1999/xlink" x="0px" y="0px"
	 width="146.083px" height="161.979px" viewBox="0 0 146.083 161.979" enable-background="new 0 0 146.083 161.979"
	 xml:space="preserve">
<g id="sTZ6Z8_1_">
	<g>
		<g enable-background="new    ">
			<g enable-background="new    ">
				<defs>
					<path id="SVGID_63_" enable-background="new    " d="M112.695,106.119v-37.5c0,0.875,0.338,1.947,1.005,3.247
						c2.403,4.685,5.409,9.135,8.091,13.718c4.555,7.787,9.262,15.511,13.474,23.43c1.557,2.923,2.205,6.29,2.718,9.524
						c0.083,0.526,0.126,1.009,0.126,1.448v37.501c0-0.441-0.043-0.923-0.126-1.449c-0.513-3.234-1.161-6.602-2.718-9.524
						c-4.212-7.919-8.919-15.643-13.474-23.43c-2.682-4.583-5.688-9.033-8.091-13.718
						C113.033,108.066,112.695,106.994,112.695,106.119z"/>
				</defs>
				<clipPath id="SVGID_2_">
					<use xlink:href="#SVGID_63_"  overflow="visible"/>
				</clipPath>
				<g clip-path="url(#SVGID_2_)" enable-background="new    ">
					<path fill="#940000" d="M112.695,106.119v-37.5c0,0.013,0,0.025,0,0.038v37.5C112.695,106.144,112.695,106.132,112.695,106.119
						"/>
					<path fill="#990000" d="M112.695,106.158v-37.5c0.001,0.096,0.007,0.193,0.016,0.293v37.5
						C112.702,106.351,112.696,106.253,112.695,106.158"/>
					<path fill="#9E0000" d="M112.711,106.451v-37.5c0.01,0.106,0.023,0.215,0.042,0.326v37.5
						C112.734,106.666,112.721,106.556,112.711,106.451"/>
					<path fill="#A30000" d="M112.753,106.777v-37.5c0.02,0.119,0.044,0.242,0.074,0.367v37.5
						C112.797,107.019,112.772,106.896,112.753,106.777"/>
					<path fill="#A80000" d="M112.827,107.144v-37.5c0.033,0.141,0.073,0.286,0.119,0.434v37.5
						C112.9,107.429,112.86,107.285,112.827,107.144"/>
					<path fill="#AD0000" d="M112.946,107.578v-37.5c0.055,0.176,0.118,0.358,0.19,0.546v37.5
						C113.064,107.935,113.001,107.753,112.946,107.578"/>
					<path fill="#B30000" d="M113.137,108.124v-37.5c0.089,0.231,0.191,0.471,0.308,0.72v37.5
						C113.328,108.595,113.226,108.355,113.137,108.124"/>
					<path fill="#B80000" d="M113.444,108.843v-37.5c0.079,0.17,0.164,0.344,0.256,0.522c0.32,0.624,0.651,1.244,0.99,1.86v37.5
						c-0.339-0.616-0.67-1.236-0.99-1.86C113.608,109.187,113.523,109.013,113.444,108.843"/>
					<path fill="#BD0000" d="M114.69,111.226v-37.5c2.208,4.012,4.776,7.885,7.101,11.857c3.951,6.755,8.017,13.463,11.774,20.291
						v37.5c-3.758-6.828-7.823-13.536-11.774-20.291C119.467,119.111,116.898,115.238,114.69,111.226"/>
					<path fill="#B80000" d="M133.565,143.375v-37.5c0.574,1.043,1.142,2.09,1.699,3.139c0.145,0.271,0.281,0.547,0.411,0.826v37.5
						c-0.13-0.279-0.267-0.555-0.411-0.826C134.707,145.464,134.14,144.417,133.565,143.375"/>
					<path fill="#B30000" d="M135.676,147.339v-37.5c0.18,0.387,0.346,0.781,0.5,1.18v37.5
						C136.021,148.121,135.855,147.726,135.676,147.339"/>
					<path fill="#AD0000" d="M136.176,148.519v-37.5c0.183,0.475,0.348,0.955,0.498,1.441v37.5
						C136.523,149.474,136.358,148.994,136.176,148.519"/>
					<path fill="#A80000" d="M136.674,149.96v-37.5c0.197,0.637,0.37,1.282,0.523,1.933v37.5
						C137.044,151.243,136.871,150.597,136.674,149.96"/>
					<path fill="#A30000" d="M137.197,151.893v-37.5c0.281,1.188,0.5,2.392,0.694,3.581v37.501
						C137.697,154.285,137.479,153.081,137.197,151.893"/>
					<path fill="#9E0000" d="M137.892,155.475v-37.501c0.031,0.188,0.062,0.377,0.091,0.563c0.04,0.255,0.071,0.499,0.092,0.733
						v37.501c-0.021-0.234-0.052-0.479-0.092-0.734C137.953,155.85,137.923,155.663,137.892,155.475"/>
					<path fill="#990000" d="M138.074,156.772v-37.501c0.021,0.221,0.031,0.432,0.034,0.635v37.499
						C138.105,157.204,138.095,156.992,138.074,156.772"/>
					<path fill="#940000" d="M138.108,157.405v-37.499c0,0.027,0,0.054,0,0.08v37.501
						C138.108,157.459,138.108,157.432,138.108,157.405"/>
				</g>
			</g>
			<g enable-background="new    ">
				<defs>
					<path id="SVGID_65_" enable-background="new    " d="M7.717,157.461v-37.499c0-0.838,0.152-1.834,0.44-3.015
						c1.17-4.778,2.935-9.571,5.382-13.96c4.438-7.949,9.621-15.58,14.4-23.39c1.665-2.72,3.258-5.495,4.527-8.363
						c0.468-1.058,0.708-1.95,0.708-2.694v37.5c0,0.744-0.24,1.636-0.708,2.693c-1.27,2.869-2.862,5.644-4.527,8.363
						c-4.779,7.811-9.963,15.441-14.4,23.391c-2.447,4.389-4.212,9.182-5.382,13.96C7.869,155.627,7.717,156.624,7.717,157.461z"/>
				</defs>
				<clipPath id="SVGID_4_">
					<use xlink:href="#SVGID_65_"  overflow="visible"/>
				</clipPath>
				<g clip-path="url(#SVGID_4_)" enable-background="new    ">
					<path fill="#850000" d="M7.717,157.461v-37.499c0-0.838,0.152-1.834,0.44-3.015c1.17-4.778,2.935-9.571,5.382-13.96
						c4.438-7.949,9.621-15.58,14.4-23.39c1.665-2.72,3.258-5.495,4.527-8.363c0.468-1.058,0.708-1.95,0.708-2.694v37.5
						c0,0.744-0.24,1.636-0.708,2.693c-1.27,2.869-2.862,5.644-4.527,8.363c-4.779,7.811-9.963,15.441-14.4,23.391
						c-2.447,4.389-4.212,9.182-5.382,13.96C7.869,155.627,7.717,156.624,7.717,157.461"/>
				</g>
			</g>
			<g enable-background="new    ">
				<defs>
					<path id="SVGID_67_" enable-background="new    " d="M1.677,91.031v-37.5c0-3.657,1.532-7.042,4.807-9.101
						c5.805-3.655,11.844-7.217,18.297-9.859c7.038-2.892,14.644-4.762,22.05-6.937c2.358-0.694,3.187-1.746,3.43-3.96
						c0.414-3.858,1.034-7.81,2.475-11.45C55.823,4.43,62.953,0.54,72.935,0.54v37.5c-9.981,0-17.111,3.89-20.2,11.684
						c-1.44,3.64-2.061,7.592-2.475,11.45c-0.243,2.214-1.071,3.266-3.43,3.96c-7.406,2.174-15.012,4.045-22.05,6.937
						c-6.453,2.642-12.492,6.204-18.297,9.859C3.209,83.99,1.677,87.375,1.677,91.031z"/>
				</defs>
				<clipPath id="SVGID_6_">
					<use xlink:href="#SVGID_67_"  overflow="visible"/>
				</clipPath>
				<g clip-path="url(#SVGID_6_)" enable-background="new    ">
					<path fill="#850000" d="M1.677,91.031v-37.5c0-3.014,1.041-5.843,3.239-7.897v37.5C2.718,85.188,1.677,88.017,1.677,91.031"/>
					<path fill="#8A0000" d="M4.916,83.134v-37.5c0.258-0.241,0.531-0.471,0.821-0.689v37.5C5.447,82.663,5.174,82.893,4.916,83.134
						"/>
					<path fill="#8F0000" d="M5.737,82.444v-37.5c0.23-0.174,0.471-0.34,0.721-0.499v37.5C6.208,82.104,5.968,82.271,5.737,82.444"
						/>
					<path fill="#940000" d="M6.458,81.946v-37.5c0.009-0.005,0.017-0.011,0.025-0.016c3.187-2.006,6.443-3.984,9.8-5.798v37.5
						c-3.356,1.813-6.613,3.792-9.8,5.798C6.475,81.935,6.467,81.94,6.458,81.946"/>
					<path fill="#990000" d="M16.283,76.132v-37.5c1.755-0.948,3.537-1.851,5.351-2.689v37.5
						C19.82,74.281,18.038,75.184,16.283,76.132"/>
					<path fill="#9E0000" d="M21.634,73.443v-37.5c1.038-0.48,2.087-0.938,3.146-1.373c0.359-0.147,0.72-0.292,1.081-0.435v37.5
						c-0.361,0.143-0.722,0.287-1.081,0.435C23.721,72.504,22.672,72.963,21.634,73.443"/>
					<path fill="#A30000" d="M25.861,71.636v-37.5c1.672-0.658,3.374-1.263,5.095-1.832v37.5
						C29.235,70.373,27.533,70.978,25.861,71.636"/>
					<path fill="#A80000" d="M30.956,69.804v-37.5c5.207-1.723,10.591-3.119,15.874-4.67c0.116-0.034,0.229-0.069,0.338-0.105v37.5
						c-0.109,0.036-0.222,0.071-0.338,0.105C41.547,66.685,36.163,68.081,30.956,69.804"/>
					<path fill="#A30000" d="M47.168,65.028v-37.5c0.151-0.05,0.297-0.103,0.436-0.157v37.5
						C47.465,64.926,47.319,64.978,47.168,65.028"/>
					<path fill="#9E0000" d="M47.604,64.872v-37.5c0.124-0.049,0.242-0.099,0.355-0.152v37.5
						C47.846,64.772,47.728,64.823,47.604,64.872"/>
					<path fill="#990000" d="M47.959,64.72v-37.5c0.106-0.049,0.209-0.1,0.306-0.152v37.5C48.168,64.62,48.065,64.671,47.959,64.72"
						/>
					<path fill="#940000" d="M48.265,64.567v-37.5c0.097-0.052,0.188-0.105,0.275-0.161v37.5
						C48.452,64.462,48.361,64.516,48.265,64.567"/>
					<path fill="#8F0000" d="M48.54,64.407v-37.5c0.093-0.059,0.181-0.119,0.264-0.182v37.5
						C48.721,64.288,48.633,64.348,48.54,64.407"/>
					<path fill="#8A0000" d="M48.804,64.225v-37.5c0.101-0.076,0.195-0.155,0.283-0.238v37.5
						C48.999,64.07,48.904,64.149,48.804,64.225"/>
					<path fill="#850000" d="M49.087,63.987v-37.5c0.702-0.657,1.033-1.544,1.173-2.813c0.414-3.858,1.034-7.81,2.475-11.45
						c1.01-2.547,2.45-4.677,4.281-6.39v37.5c-1.831,1.713-3.271,3.843-4.281,6.39c-1.44,3.64-2.061,7.592-2.475,11.45
						C50.12,62.443,49.789,63.33,49.087,63.987"/>
					<path fill="#8A0000" d="M57.016,43.334v-37.5c0.432-0.405,0.887-0.787,1.362-1.145v37.5
						C57.902,42.547,57.447,42.929,57.016,43.334"/>
					<path fill="#8F0000" d="M58.378,42.189v-37.5c0.369-0.278,0.751-0.542,1.146-0.792v37.5
						C59.129,41.646,58.747,41.911,58.378,42.189"/>
					<path fill="#940000" d="M59.523,41.396v-37.5c0.351-0.223,0.712-0.435,1.083-0.635v37.5
						C60.235,40.962,59.874,41.174,59.523,41.396"/>
					<path fill="#990000" d="M60.606,40.761v-37.5c0.347-0.187,0.701-0.365,1.064-0.533v37.5
						C61.308,40.396,60.953,40.574,60.606,40.761"/>
					<path fill="#9E0000" d="M61.671,40.228v-37.5c0.352-0.163,0.711-0.316,1.078-0.46v37.5
						C62.382,39.912,62.022,40.065,61.671,40.228"/>
					<path fill="#A30000" d="M62.749,39.768v-37.5c0.364-0.143,0.736-0.278,1.116-0.403v37.5
						C63.485,39.49,63.113,39.625,62.749,39.768"/>
					<path fill="#A80000" d="M63.865,39.364v-37.5c0.385-0.127,0.778-0.246,1.179-0.355v37.5
						C64.644,39.119,64.25,39.237,63.865,39.364"/>
					<path fill="#AD0000" d="M65.044,39.009v-37.5c0.416-0.113,0.84-0.216,1.272-0.31v37.5
						C65.884,38.793,65.46,38.896,65.044,39.009"/>
					<path fill="#B30000" d="M66.316,38.7V1.2c0.458-0.099,0.926-0.187,1.401-0.264v37.5C67.242,38.513,66.774,38.601,66.316,38.7"
						/>
					<path fill="#B80000" d="M67.718,38.436v-37.5c0.517-0.083,1.044-0.153,1.581-0.21v37.5
						C68.762,38.282,68.234,38.353,67.718,38.436"/>
					<path fill="#BD0000" d="M69.299,38.226v-37.5c0.597-0.063,1.205-0.11,1.826-0.142v37.5
						C70.504,38.115,69.896,38.162,69.299,38.226"/>
					<path fill="#C20000" d="M71.125,38.084v-37.5c0.592-0.029,1.195-0.044,1.81-0.044v37.5
						C72.32,38.04,71.717,38.055,71.125,38.084"/>
				</g>
			</g>
			<g>
				<path fill="#BA0000" d="M72.935,38.04c10.157,0.063,17.204,3.976,20.272,11.747c1.396,3.554,2.098,7.397,2.412,11.154
					c0.216,2.509,1.251,3.531,3.853,4.31c8.405,2.525,16.901,4.903,24.975,8.09c5.31,2.097,10.144,5.253,14.805,8.363
					c3.159,2.112,4.914,5.285,4.986,8.901c0.144,6.812-4.455,10.936-13.095,11.598c-4.257,0.328-8.55,0.336-12.808,0.64
					c-5.427,0.39-6.857,2.19-4.635,6.523c2.403,4.685,5.409,9.135,8.091,13.718c4.555,7.787,9.262,15.511,13.474,23.43
					c1.557,2.923,2.205,6.29,2.718,9.524c0.612,3.865-0.972,5.34-5.518,5.439c-2.478,0.059-4.957,0.075-7.437,0.075
					c-3.582,0-7.164-0.035-10.743-0.035c-3.094,0.039-6.191-0.026-9.284-0.026c-2.017,0-4.031,0.027-6.043,0.119
					c-0.257,0.012-0.511,0.018-0.759,0.018c-4.179,0-7.082-1.605-9.24-4.717c-3.365-4.848-6.705-9.712-10.269-14.45
					c-2.454-3.271-4.099-4.908-5.744-4.908c-1.655-0.001-3.312,1.655-5.794,4.971c-3.546,4.738-6.903,9.595-10.26,14.442
					c-2.244,3.233-5.308,4.656-9.681,4.656c-4.515-0.078-8.672-0.1-12.829-0.1c-2.741,0-5.482,0.01-8.226,0.019
					c-2.533,0.005-5.071,0.015-7.609,0.015c-1.142,0-2.283-0.002-3.425-0.008c-6.614-0.022-8.343-1.457-6.966-7.1
					c1.17-4.778,2.935-9.571,5.382-13.96c4.438-7.949,9.621-15.58,14.4-23.391c1.665-2.72,3.258-5.494,4.527-8.363
					c1.664-3.764,0.449-5.424-4.222-5.822c-4.374-0.373-8.784-0.381-13.167-0.678c-8.595-0.576-13.319-4.505-13.4-11.044
					c-0.045-3.718,1.484-7.171,4.806-9.26c5.805-3.655,11.844-7.217,18.297-9.859c7.038-2.892,14.644-4.762,22.05-6.937
					c2.358-0.694,3.187-1.746,3.43-3.96c0.414-3.858,1.034-7.81,2.475-11.45C55.823,41.93,62.953,38.04,72.935,38.04z"/>
			</g>
			<g enable-background="new    ">
				<defs>
					<path id="SVGID_69_" enable-background="new    " d="M144.24,53.413v37.5c0-0.103-0.001-0.204-0.003-0.308
						c-0.072-3.616-1.827-6.789-4.986-8.901c-4.661-3.11-9.495-6.267-14.805-8.363c-8.073-3.188-16.569-5.565-24.975-8.09
						c-2.602-0.779-3.637-1.801-3.853-4.31c-0.314-3.757-1.017-7.6-2.412-11.154c-3.068-7.771-10.115-11.684-20.272-11.747V0.54
						c10.157,0.063,17.204,3.976,20.272,11.747c1.396,3.554,2.098,7.397,2.412,11.154c0.216,2.509,1.251,3.531,3.853,4.31
						c8.405,2.525,16.901,4.903,24.975,8.09c5.31,2.097,10.144,5.253,14.805,8.363c3.159,2.112,4.914,5.285,4.986,8.901
						C144.239,53.208,144.24,53.311,144.24,53.413z"/>
				</defs>
				<clipPath id="SVGID_8_">
					<use xlink:href="#SVGID_69_"  overflow="visible"/>
				</clipPath>
				<g clip-path="url(#SVGID_8_)" enable-background="new    ">
					<path fill="#C20000" d="M72.935,38.04V0.54c0.047,0,0.095,0,0.142,0.001v37.5C73.029,38.041,72.981,38.04,72.935,38.04"/>
					<path fill="#C70000" d="M73.076,38.041v-37.5c0.831,0.008,1.642,0.042,2.431,0.102v37.5
						C74.718,38.083,73.907,38.049,73.076,38.041"/>
					<path fill="#CC0000" d="M75.507,38.143v-37.5c0.836,0.064,1.648,0.157,2.437,0.279v37.5
						C77.155,38.3,76.343,38.207,75.507,38.143"/>
					<path fill="#D10000" d="M77.943,38.422v-37.5c0.947,0.146,1.859,0.335,2.734,0.566v37.5
						C79.803,38.757,78.891,38.568,77.943,38.422"/>
					<path fill="#D60000" d="M80.678,38.988v-37.5c2.583,0.683,4.847,1.733,6.764,3.152v37.5
						C85.524,40.721,83.261,39.671,80.678,38.988"/>
					<path fill="#D10000" d="M87.441,42.14V4.64c0.525,0.389,1.024,0.805,1.498,1.25v37.5C88.466,42.945,87.967,42.529,87.441,42.14
						"/>
					<path fill="#CC0000" d="M88.939,43.39V5.89c0.363,0.341,0.711,0.699,1.043,1.073v37.5C89.65,44.088,89.303,43.73,88.939,43.39"
						/>
					<path fill="#C70000" d="M89.982,44.462v-37.5c0.291,0.329,0.571,0.67,0.838,1.024v37.5
						C90.554,45.133,90.273,44.791,89.982,44.462"/>
					<path fill="#C20000" d="M90.82,45.487v-37.5c0.25,0.332,0.489,0.674,0.717,1.027v37.5C91.31,46.161,91.07,45.818,90.82,45.487"
						/>
					<path fill="#BD0000" d="M91.537,46.514v-37.5c0.223,0.344,0.434,0.699,0.635,1.064v37.5
						C91.971,47.213,91.76,46.858,91.537,46.514"/>
					<path fill="#B80000" d="M92.172,47.579v-37.5c0.202,0.366,0.393,0.743,0.573,1.131v37.5
						C92.564,48.322,92.374,47.945,92.172,47.579"/>
					<path fill="#B30000" d="M92.745,48.709v-37.5c0.163,0.351,0.316,0.709,0.462,1.077c0.022,0.057,0.044,0.113,0.066,0.17v37.5
						c-0.022-0.057-0.044-0.114-0.066-0.17C93.062,49.419,92.908,49.06,92.745,48.709"/>
					<path fill="#AD0000" d="M93.273,49.957v-37.5c0.25,0.648,0.478,1.307,0.684,1.972v37.5
						C93.751,51.264,93.523,50.605,93.273,49.957"/>
					<path fill="#A80000" d="M93.957,51.929v-37.5c0.236,0.763,0.445,1.536,0.63,2.314v37.5
						C94.402,53.465,94.193,52.692,93.957,51.929"/>
					<path fill="#A30000" d="M94.587,54.244v-37.5c0.22,0.93,0.404,1.869,0.559,2.811v37.5
						C94.991,56.113,94.807,55.174,94.587,54.244"/>
					<path fill="#9E0000" d="M95.146,57.054v-37.5c0.196,1.198,0.342,2.399,0.448,3.594v37.5
						C95.487,59.454,95.342,58.252,95.146,57.054"/>
					<path fill="#990000" d="M95.594,60.648v-37.5c0.009,0.098,0.018,0.195,0.025,0.292c0.001,0.015,0.003,0.031,0.004,0.046v37.5
						c-0.001-0.015-0.003-0.031-0.004-0.046C95.611,60.843,95.603,60.746,95.594,60.648"/>
					<path fill="#9E0000" d="M95.623,60.986v-37.5c0.019,0.206,0.043,0.402,0.073,0.589v37.5
						C95.666,61.389,95.642,61.192,95.623,60.986"/>
					<path fill="#A30000" d="M95.696,61.575v-37.5c0.025,0.152,0.054,0.297,0.087,0.437v37.5
						C95.75,61.873,95.722,61.727,95.696,61.575"/>
					<path fill="#A80000" d="M95.783,62.012v-37.5c0.027,0.117,0.059,0.23,0.092,0.339v37.5
						C95.842,62.242,95.811,62.129,95.783,62.012"/>
					<path fill="#AD0000" d="M95.875,62.351v-37.5c0.03,0.097,0.062,0.191,0.098,0.282v37.5
						C95.938,62.542,95.905,62.448,95.875,62.351"/>
					<path fill="#B30000" d="M95.973,62.633v-37.5c0.032,0.084,0.066,0.166,0.104,0.245v37.5
						C96.039,62.798,96.005,62.717,95.973,62.633"/>
					<path fill="#B80000" d="M96.076,62.877v-37.5c0.035,0.076,0.072,0.149,0.111,0.22v37.5
						C96.148,63.026,96.111,62.953,96.076,62.877"/>
					<path fill="#BD0000" d="M96.188,63.098v-37.5c0.039,0.07,0.079,0.138,0.122,0.205v37.5
						C96.267,63.236,96.227,63.167,96.188,63.098"/>
					<path fill="#C20000" d="M96.31,63.302v-37.5c0.044,0.068,0.091,0.135,0.14,0.199v37.5C96.4,63.437,96.354,63.371,96.31,63.302"
						/>
					<path fill="#C70000" d="M96.449,63.501v-37.5c0.052,0.07,0.107,0.138,0.166,0.203v37.5
						C96.557,63.639,96.501,63.571,96.449,63.501"/>
					<path fill="#CC0000" d="M96.615,63.705v-37.5c0.067,0.076,0.139,0.149,0.214,0.22v37.5
						C96.754,63.854,96.683,63.78,96.615,63.705"/>
					<path fill="#D10000" d="M96.829,63.924v-37.5c0.106,0.101,0.222,0.196,0.345,0.288v37.5
						C97.051,64.121,96.936,64.025,96.829,63.924"/>
					<path fill="#D60000" d="M97.174,64.212v-37.5c0.574,0.423,1.327,0.748,2.298,1.039c8.405,2.525,16.901,4.903,24.975,8.09
						c5.31,2.097,10.144,5.253,14.805,8.363c0.177,0.118,0.349,0.239,0.516,0.363v37.5c-0.167-0.124-0.339-0.245-0.516-0.363
						c-4.661-3.11-9.495-6.267-14.805-8.363c-8.073-3.188-16.569-5.565-24.975-8.09C98.501,64.959,97.748,64.635,97.174,64.212"/>
					<path fill="#D10000" d="M139.767,82.067v-37.5c0.382,0.284,0.74,0.583,1.076,0.899v37.5
						C140.507,82.651,140.148,82.351,139.767,82.067"/>
					<path fill="#CC0000" d="M140.843,82.966v-37.5c0.252,0.237,0.49,0.483,0.716,0.736v37.5
						C141.333,83.449,141.095,83.203,140.843,82.966"/>
					<path fill="#C70000" d="M141.559,83.703v-37.5c0.193,0.218,0.377,0.443,0.551,0.673v37.5
						C141.936,84.146,141.752,83.921,141.559,83.703"/>
					<path fill="#C20000" d="M142.109,84.375v-37.5c0.157,0.209,0.307,0.422,0.447,0.641v37.5
						C142.416,84.798,142.267,84.584,142.109,84.375"/>
					<path fill="#BD0000" d="M142.557,85.016v-37.5c0.133,0.207,0.259,0.417,0.376,0.631v37.5
						C142.815,85.433,142.689,85.222,142.557,85.016"/>
					<path fill="#B80000" d="M142.933,85.647v-37.5c0.114,0.207,0.221,0.417,0.32,0.63v37.5
						C143.153,86.064,143.047,85.853,142.933,85.647"/>
					<path fill="#B30000" d="M143.253,86.277v-37.5c0.098,0.211,0.188,0.426,0.272,0.643v37.5
						C143.441,86.703,143.351,86.489,143.253,86.277"/>
					<path fill="#AD0000" d="M143.525,86.92v-37.5c0.084,0.218,0.161,0.44,0.23,0.664v37.5
						C143.687,87.361,143.609,87.138,143.525,86.92"/>
					<path fill="#A80000" d="M143.756,87.584v-37.5c0.071,0.229,0.135,0.461,0.19,0.697v37.5
						C143.891,88.046,143.827,87.814,143.756,87.584"/>
					<path fill="#A30000" d="M143.946,88.281v-37.5c0.058,0.243,0.106,0.489,0.147,0.738v37.5
						C144.053,88.771,144.004,88.525,143.946,88.281"/>
					<path fill="#9E0000" d="M144.094,89.019v-37.5c0.043,0.266,0.077,0.534,0.102,0.805v37.5
						C144.171,89.554,144.137,89.285,144.094,89.019"/>
					<path fill="#990000" d="M144.195,89.825v-37.5c0.022,0.258,0.037,0.518,0.042,0.78c0.001,0.05,0.002,0.101,0.002,0.15v37.5
						c0-0.05-0.001-0.1-0.002-0.15C144.232,90.343,144.218,90.083,144.195,89.825"/>
					<path fill="#940000" d="M144.239,90.755v-37.5c0.001,0.053,0.001,0.105,0.001,0.157v37.5
						C144.24,90.861,144.24,90.808,144.239,90.755"/>
				</g>
			</g>
		</g>
	</g>
</g>
</svg>
